<svg xmlns="http://www.w3.org/2000/svg" viewBox="0 0 48 48"><defs><style>.cls-1{fill:#99cecc;isolation:isolate;opacity:0.27;}.cls-2{fill:#35908b;}</style></defs><g id="Layer_2" data-name="Layer 2"><g id="Layer_1-2" data-name="Layer 1"><circle id="Menu_Indicator" data-name="Menu Indicator" class="cls-1" cx="24" cy="24" r="24"/><path id="Icon_metro-spoon-fork" data-name="Icon metro-spoon-fork" class="cls-2" d="M18.11,11.94c-2.58,0-4.68,2.44-4.68,5.46A5.37,5.37,0,0,0,17,22.71l-.77,12.63a1.45,1.45,0,0,0,1.34,1.55h.9A1.44,1.44,0,0,0,20,35.45a.4.4,0,0,0,0-.11l-.77-12.63a5.35,5.35,0,0,0,3.6-5.31C22.79,14.38,20.7,11.94,18.11,11.94Zm15.73,0-1.3,7.8h-1l-.65-7.8h-.65l-.65,7.8h-1l-1.3-7.8h-.65V22.07a.77.77,0,0,0,.78.78h2l-.77,12.49a1.45,1.45,0,0,0,1.35,1.55H31a1.44,1.44,0,0,0,1.46-1.44.4.4,0,0,0,0-.11l-.76-12.49h2a.77.77,0,0,0,.78-.77h0V11.94Z"/></g></g></svg>