<svg xmlns="http://www.w3.org/2000/svg" width="25.262" height="23.416" viewBox="0 0 25.262 23.416">
  <g id="Chat_Icon" data-name="Chat Icon" transform="translate(-42 -72)">
    <g id="Icon_ionic-ios-chatbubbles" data-name="Icon ionic-ios-chatbubbles" transform="translate(42 72)">
      <path id="Path_9" data-name="Path 9" d="M10.575,22.061a1.59,1.59,0,0,0-.24-.836,2.3,2.3,0,0,0-.153-.213,10.67,10.67,0,0,1-2.005-6.19C8.156,8.5,13.808,3.375,20.8,3.375c6.1,0,11.182,3.914,12.373,9.11a10.419,10.419,0,0,1,.269,2.344c0,6.327-5.435,11.592-12.424,11.592a15.784,15.784,0,0,1-3.429-.528c-.821-.212-1.635-.494-1.845-.569a2.023,2.023,0,0,0-.676-.117,1.987,1.987,0,0,0-.734.137l-4.12,1.378a1.029,1.029,0,0,1-.283.069.563.563,0,0,1-.581-.548.837.837,0,0,1,.036-.185Z" transform="translate(-8.177 -3.375)" fill="#fff"/>
    </g>
  </g>
</svg>
