<svg xmlns="http://www.w3.org/2000/svg" viewBox="0 0 22.29 27.43"><defs><style>.cls-1{fill:#d7d6d6;}</style></defs><g id="Layer_2" data-name="Layer 2"><g id="Layer_1-2" data-name="Layer 1"><path id="Icon_awesome-running" data-name="Icon awesome-running" class="cls-1" d="M14.57,5.14A2.57,2.57,0,1,0,12,2.57h0A2.57,2.57,0,0,0,14.57,5.14ZM6.09,17,5.3,18.86H1.71a1.72,1.72,0,0,0,0,3.43H5.86a2.58,2.58,0,0,0,2.37-1.56l.47-1.1-.57-.34a5.07,5.07,0,0,1-2-2.28Zm14.48-5H18.21l-1.4-2.85A5.12,5.12,0,0,0,13.5,6.42L9.7,5.29a5.12,5.12,0,0,0-4.33.91L3.24,7.83A1.72,1.72,0,0,0,5.3,10.58l0,0L7.46,8.92A1.67,1.67,0,0,1,8.81,8.6l.79.24-2,4.67A3.44,3.44,0,0,0,9,17.81l4.55,2.69-1.47,4.7a1.71,1.71,0,1,0,3.27,1h0l1.7-5.42a2.59,2.59,0,0,0-1.16-2.91L12.61,16l1.67-4.19L15.37,14a2.59,2.59,0,0,0,2.31,1.44h2.89a1.72,1.72,0,1,0,0-3.43Z"/></g></g></svg>