<svg xmlns="http://www.w3.org/2000/svg" viewBox="0 0 48 48"><defs><style>.cls-1{fill:#99cecc;isolation:isolate;opacity:0.27;}.cls-2{fill:#0f7973;}</style></defs><g id="Layer_2" data-name="Layer 2"><g id="Layer_1-2" data-name="Layer 1"><circle id="Ellipse_8" data-name="Ellipse 8" class="cls-1" cx="24" cy="24" r="24"/><path id="Icon_awesome-running" data-name="Icon awesome-running" class="cls-2" d="M27.43,15.33a2.58,2.58,0,1,0-2.57-2.57h0A2.57,2.57,0,0,0,27.43,15.33ZM19,27.19,18.16,29H14.57a1.72,1.72,0,0,0,0,3.43h4.15a2.55,2.55,0,0,0,2.36-1.56l.48-1.1L21,29.48a5.18,5.18,0,0,1-2-2.29Zm14.48-5H31.07l-1.4-2.86a5.14,5.14,0,0,0-3.31-2.73l-3.8-1.13a5.09,5.09,0,0,0-4.33.92L16.1,18a1.71,1.71,0,0,0,2.06,2.74l0,0,2.12-1.63a1.66,1.66,0,0,1,1.36-.32l.79.23-2,4.68A3.43,3.43,0,0,0,21.86,28l4.55,2.69-1.47,4.7a1.71,1.71,0,0,0,3.27,1h0L29.91,31a2.59,2.59,0,0,0-1.16-2.91l-3.29-1.94L27.14,22l1.09,2.22a2.61,2.61,0,0,0,2.31,1.44h2.89a1.72,1.72,0,0,0,0-3.43Z"/></g></g></svg>