<svg xmlns="http://www.w3.org/2000/svg" viewBox="0 0 155.21 155.24"><defs><style>.cls-1{fill:#fff;}</style></defs><g id="Layer_2" data-name="Layer 2"><g id="Layer_1-2" data-name="Layer 1"><g id="Icon_ionic-ios-chatbubbles" data-name="Icon ionic-ios-chatbubbles"><path id="Path_26" data-name="Path 26" class="cls-1" d="M142.91,101.71a9,9,0,0,1,1.23-4.54,13.05,13.05,0,0,1,.78-1.16,60.45,60.45,0,0,0,10.29-33.69A63.46,63.46,0,0,0,90.62,0h-.21A64.42,64.42,0,0,0,26.88,49.56,60.81,60.81,0,0,0,25.5,62.32,63.29,63.29,0,0,0,89,125.41h.32a77.21,77.21,0,0,0,17.61-2.88c4.21-1.16,8.39-2.68,9.47-3.1a9.82,9.82,0,0,1,3.47-.63,9.6,9.6,0,0,1,3.77.74l21.15,7.5a5.33,5.33,0,0,0,1.46.38,3,3,0,0,0,3-3,4.94,4.94,0,0,0-.19-1Z"/><path id="Path_27" data-name="Path 27" class="cls-1" d="M100.94,128.55c-1.35.37-3.06.78-5,1.19a68.51,68.51,0,0,1-12.68,1.67A63.3,63.3,0,0,1,19.5,68.64v-.32a71,71,0,0,1,.55-8c.23-1.61.49-3.21.87-4.78s.82-3.36,1.3-5l-3,2.64A55.49,55.49,0,0,0,0,95a54.86,54.86,0,0,0,9.25,30.59c.87,1.31,1.35,2.31,1.19,3S6,151.69,6,151.69a3,3,0,0,0,1,2.88,3,3,0,0,0,1.9.67A2.69,2.69,0,0,0,10,155l21-8.26a5.76,5.76,0,0,1,2.13-.41,5.93,5.93,0,0,1,2.35.49,62.81,62.81,0,0,0,22.65,4.48,58.67,58.67,0,0,0,44.81-20.56l2.57-3.58C104.07,127.64,102.5,128.13,100.94,128.55Z"/></g></g></g></svg>