<svg xmlns="http://www.w3.org/2000/svg" viewBox="0 0 22.17 22.16"><defs><style>.cls-1{fill:#d6d6d6;}</style></defs><g id="Layer_2" data-name="Layer 2"><g id="Layer_1-2" data-name="Layer 1"><path id="Path_6" data-name="Path 6" class="cls-1" d="M19.7,0H2.46A2.46,2.46,0,0,0,0,2.46V19.7a2.46,2.46,0,0,0,2.46,2.46H19.7a2.47,2.47,0,0,0,2.47-2.46V2.46A2.47,2.47,0,0,0,19.7,0ZM12.31,17.24H6.16a1.23,1.23,0,1,1-.07-2.46h6.23a1.23,1.23,0,0,1,.07,2.46h-.08ZM16,12.31H6.16A1.22,1.22,0,0,1,5,11.05a1.24,1.24,0,0,1,1.2-1.2H16a1.23,1.23,0,0,1,0,2.46Zm0-4.92H6.16a1.23,1.23,0,1,1-.07-2.46H16a1.23,1.23,0,1,1,.07,2.46Z"/></g></g></svg>