<svg xmlns="http://www.w3.org/2000/svg" viewBox="0 0 21.06 24.96"><defs><style>.cls-1{fill:#d7d6d6;}</style></defs><g id="Layer_2" data-name="Layer 2"><g id="Layer_1-2" data-name="Layer 1"><path id="Icon_metro-spoon-fork" data-name="Icon metro-spoon-fork" class="cls-1" d="M4.68,0C2.1,0,0,2.44,0,5.46a5.33,5.33,0,0,0,3.6,5.31L2.83,23.4A1.45,1.45,0,0,0,4.18,25h.89a1.47,1.47,0,0,0,1.47-1.44.49.49,0,0,0,0-.12L5.76,10.77a5.33,5.33,0,0,0,3.6-5.31C9.36,2.44,7.27,0,4.68,0ZM20.41,0l-1.3,7.8h-1L17.49,0h-.65l-.65,7.8h-1L13.91,0h-.65V10.14a.78.78,0,0,0,.78.78h2L15.3,23.4A1.46,1.46,0,0,0,16.65,25a.48.48,0,0,0,.12,0h.78A1.45,1.45,0,0,0,19,23.52a.49.49,0,0,0,0-.12l-.76-12.48h2a.78.78,0,0,0,.78-.78h0V0Z"/></g></g></svg>