<svg xmlns="http://www.w3.org/2000/svg" viewBox="0 0 48 48"><defs><style>.cls-1{fill:#99cfcc;isolation:isolate;opacity:0.27;}.cls-2{fill:#117973;}</style></defs><g id="Layer_2" data-name="Layer 2"><g id="Layer_1-2" data-name="Layer 1"><circle id="Menu_Indicator-2" data-name="Menu Indicator-2" class="cls-1" cx="24" cy="24" r="24"/><path id="Path_6" data-name="Path 6" class="cls-2" d="M32.62,12.92H15.38a2.46,2.46,0,0,0-2.46,2.46V32.62a2.46,2.46,0,0,0,2.46,2.46H32.62a2.46,2.46,0,0,0,2.46-2.46V15.38A2.46,2.46,0,0,0,32.62,12.92ZM25.23,30.16H19.07A1.23,1.23,0,0,1,19,27.7h6.23a1.23,1.23,0,1,1,.07,2.46Zm3.7-4.93H19.07a1.23,1.23,0,0,1,0-2.46h9.86a1.23,1.23,0,0,1,0,2.46Zm0-4.92H19.07A1.24,1.24,0,0,1,19,17.84h9.93A1.24,1.24,0,0,1,29,20.31Z"/></g></g></svg>