<svg xmlns="http://www.w3.org/2000/svg" viewBox="0 0 48 48"><defs><style>.cls-1{fill:#99cecc;isolation:isolate;opacity:0.27;}.cls-2{fill:#49938f;}</style></defs><g id="Layer_2" data-name="Layer 2"><g id="Layer_1-2" data-name="Layer 1"><circle id="Menu_Indicator" data-name="Menu Indicator" class="cls-1" cx="24" cy="24" r="24"/><path id="Weight_Icons" data-name="Weight Icons" class="cls-2" d="M32.51,13.06h-17a2.45,2.45,0,0,0-2.43,2.43v17a2.45,2.45,0,0,0,2.43,2.43h17a2.45,2.45,0,0,0,2.43-2.43v-17A2.45,2.45,0,0,0,32.51,13.06ZM24,24a3.65,3.65,0,1,1,3.65-3.65A3.65,3.65,0,0,1,24,24Z"/><circle id="Ellipse_1" data-name="Ellipse 1" class="cls-2" cx="22.18" cy="20.35" r="0.61"/><circle id="Ellipse_2" data-name="Ellipse 2" class="cls-2" cx="25.82" cy="20.35" r="0.61"/><circle id="Ellipse_3" data-name="Ellipse 3" class="cls-2" cx="24" cy="20.35" r="0.61"/></g></g></svg>